# xmcd
#
# Track frame offsets:
#	150
#	15112
#	30722
#	42527
#	56255
#	71750
#	79845
#	90775
#	100890
#	113755
#	122280
#	133972
#	145580
#	156742
#	173107
#	188230
#	199155
#	210140
#	223892
#	235845
#
# Disc length: 3281
#
# Revision: 3
# Processed by: cddbd v1.5.1PL0 Copyright (c) Steve Scherf et al.
# Submitted via: audiograbber 1.83.01
# Normalized: r2:TSWAP
#
DISCID=0e0ccf14
DTITLE=Various Artist - The Country Collection
DYEAR=1900
DGENRE=Country
TTITLE0=Lynn Anderson - Desperado
TTITLE1=Kenny Rogers - My Washington Woman
TTITLE2=Johhny Cash - Port of Lonely Hearts
TTITLE3=Jerry Lee Lewis - Cold, Cold Heart
TTITLE4=Oak Ridge Boys - Father Alone
TTITLE5=Willie Nelson - You Wouldn't Cross the Street to Say Goodbay
TTITLE6=George Jones - I'll Share My World With You
TTITLE7=Kenny Rogers - Ticket to Nowhere
TTITLE8=Bobby Bare - Tender Years
TTITLE9=Waylon Jennings - Abilene
TTITLE10=Pat Boone - Speedy Gonzales
TTITLE11=Doc Watson - Tom Dooley
TTITLE12=Patsy Cline - Just Out of Reach
TTITLE13=Everly Brothers - I'm Here to Get my Baby out of Jail
TTITLE14=Jerry Lee Lewis - Jambalaya
TTITLE15=Don Williams - Spend Some Time With Me
TTITLE16=Bobby Bare - Vampira
TTITLE17=Willie Nelson - Home is Where you're Happy
TTITLE18=Lynn Anderson - You Don't Have to Say You Love Me
TTITLE19=Freddy Fender - Before the Next Teardrop Falls
EXTD=
EXTT0=
EXTT1=
EXTT2=
EXTT3=
EXTT4=
EXTT5=
EXTT6=
EXTT7=
EXTT8=
EXTT9=
EXTT10=
EXTT11=
EXTT12=
EXTT13=
EXTT14=
EXTT15=
EXTT16=
EXTT17=
EXTT18=
EXTT19=
PLAYORDER=
